<svg xmlns="http://www.w3.org/2000/svg" viewBox="0 0 1200 720" role="img" aria-labelledby="title desc">
  <title id="title">Energía comunitaria</title><desc id="desc">Un sol se levanta detrás de paneles y hojas.</desc>
  <rect width="1200" height="720" fill="#d7eb72"/><circle cx="875" cy="180" r="128" fill="#ff684c"/><path d="m870 22 5-90M870 338l5 90M713 180l-90 0M1032 180l90 0M760 70l-65-65M980 70l65-65M760 290l-65 65M980 290l65 65" stroke="#ff684c" stroke-width="12" stroke-linecap="round"/><path d="M0 532 270 375l244 151 234-134 452 210v118H0Z" fill="#172126"/><g fill="#5077ff" stroke="#f4efe6" stroke-width="6"><path d="m115 534 191-111 176 105-196 115Z"/><path d="m390 694 201-117 175 105-201 118Z"/><path d="m610 548 176-102 200 118-181 106Z"/></g><path d="M70 622c42-99 123-120 179-55 33-69 107-59 128 9 80-55 158 6 154 93H70Z" fill="#8fc5bc"/><text x="68" y="90" fill="#172126" font-family="Georgia,serif" font-size="51" font-weight="700">SHARED / POWER</text>
</svg>
